<?xml version="1.0" encoding="UTF-8"?>
<svg id="Layer_1" xmlns="http://www.w3.org/2000/svg" xmlns:xlink="http://www.w3.org/1999/xlink" viewBox="0 0 1023.07 1080">
  <defs>
    <style>
      .cls-1, .cls-2, .cls-3, .cls-4, .cls-5 {
        fill-rule: evenodd;
      }

      .cls-1, .cls-6 {
        fill: #29ace3;
      }

      .cls-7 {
        clip-path: url(#clippath-4);
      }

      .cls-8 {
        fill: url(#linear-gradient-2);
      }

      .cls-2 {
        fill: #0463ef;
      }

      .cls-9 {
        mask: url(#mask);
      }

      .cls-10 {
        fill: none;
      }

      .cls-3 {
        fill: #2ddaff;
      }

      .cls-11 {
        clip-path: url(#clippath-1);
      }

      .cls-12, .cls-4 {
        fill: #0c8bcd;
      }

      .cls-13 {
        isolation: isolate;
      }

      .cls-14 {
        clip-path: url(#clippath-3);
      }

      .cls-15 {
        clip-path: url(#clippath-2);
      }

      .cls-5 {
        fill: #15b0f8;
      }

      .cls-16 {
        fill: url(#linear-gradient);
      }

      .cls-17 {
        clip-path: url(#clippath);
      }
    </style>
    <clipPath id="clippath">
      <path class="cls-10" d="M129.05,506.19c-19.82,8.37-31.99,28.55-30.15,49.99,1.84,21.44,17.28,39.24,38.24,44.11-13.88-6.57-22.59-20.7-22.23-36.05.35-14.84,9.11-28.14,22.5-34.35.46-.21.92-.42,1.39-.61l66.72-28.21c5.08-2.61,9.21-6.84,11.69-12.07,3.05-6.42,3.37-13.8.87-20.46l-89.04,37.65Z"/>
    </clipPath>
    <linearGradient id="linear-gradient" x1="217.91" y1="940.63" x2="218.19" y2="940.63" gradientTransform="translate(-112989.93 488607.62) scale(518.88 -518.88)" gradientUnits="userSpaceOnUse">
      <stop offset="0" stop-color="#2ddaff"/>
      <stop offset="1" stop-color="#15b0f8"/>
    </linearGradient>
    <clipPath id="clippath-1">
      <rect class="cls-10" x="97.05" y="468.54" width="123.53" height="133.05"/>
    </clipPath>
    <clipPath id="clippath-2">
      <rect class="cls-10" x="98.72" y="502.26" width="68.61" height="97.86"/>
    </clipPath>
    <clipPath id="clippath-3">
      <rect class="cls-10" x="98.72" y="502.26" width="68.61" height="97.86"/>
    </clipPath>
    <linearGradient id="linear-gradient-2" x1="218.54" y1="940.68" x2="218.82" y2="940.68" gradientTransform="translate(-82334.98 355130.9) scale(376.94 -376.94)" gradientUnits="userSpaceOnUse">
      <stop offset="0" stop-color="#fff"/>
      <stop offset="1" stop-color="#1d1d1b"/>
    </linearGradient>
    <mask id="mask" x="77.19" y="487.16" width="111.67" height="128.05" maskUnits="userSpaceOnUse">
      <g class="cls-15">
        <rect x="95.32" y="500.81" width="72.01" height="99.31"/>
        <g class="cls-13">
          <g class="cls-14">
            <rect class="cls-8" x="77.61" y="506.72" width="110.82" height="88.94" transform="translate(-433.97 556.28) rotate(-76.95)"/>
          </g>
        </g>
      </g>
    </mask>
    <clipPath id="clippath-4">
      <rect class="cls-10" x="98.72" y="502.26" width="68.61" height="97.86"/>
    </clipPath>
  </defs>
  <g>
    <path class="cls-1" d="M194.12,532.59c-10.68-25.26-39.81-37.07-65.07-26.39-25.26,10.68-37.07,39.81-26.39,65.07,10.68,25.26,39.81,37.07,65.07,26.39,25.26-10.68,37.07-39.81,26.39-65.07ZM148.38,569.63c-9.78,0-17.71-7.93-17.71-17.71s7.93-17.71,17.71-17.71,17.71,7.93,17.71,17.71-7.93,17.71-17.71,17.71Z"/>
    <rect class="cls-10" x="97.05" y="468.54" width="123.53" height="133.05"/>
    <g class="cls-17">
      <rect class="cls-16" x="71.31" y="448.52" width="175.01" height="171.78" transform="translate(-385.87 415.53) rotate(-61.14)"/>
    </g>
    <g class="cls-11">
      <path class="cls-5" d="M137.42,529.89c.46-.21.92-.42,1.39-.61l39.74-16.8c-13.71-10.46-32.48-13.48-49.5-6.28-.37.16-.73.32-1.09.48l-.26.12c-.27.12-.54.25-.8.38l-.32.16c-.27.13-.54.27-.81.41l-.23.12c-.34.18-.68.35-1.01.54l-.29.16c-.23.13-.45.25-.68.38l-.47.27-.47.28c-.18.11-.35.21-.52.32l-.38.24c-.71.45-1.4.91-2.08,1.39l-.13.09c-.23.17-.46.33-.69.51l-.14.1c-1.27.95-2.5,1.96-3.66,3.02l-.05.04c-.9.82-1.76,1.66-2.59,2.54l-.22.23c-.15.16-.29.32-.44.48l-.34.38c-.12.13-.24.27-.36.4-.19.22-.38.44-.57.67l-.11.13c-.25.3-.49.6-.74.9l-.04.05c-10.96,13.77-14.24,32.95-6.9,50.29,1.99,4.71,4.62,8.95,7.75,12.66l.15.18c.2.23.39.46.59.68l.19.22c.22.25.45.5.68.74l.08.08c.26.28.52.55.78.82l.19.19c.2.2.4.41.61.61l.23.22c.22.21.44.42.66.63l.14.13c6.17,5.69,13.67,9.69,21.73,11.7l.28.07.42.1c-13.87-6.58-22.57-20.7-22.21-36.04.35-14.84,9.11-28.14,22.5-34.35"/>
      <g class="cls-9">
        <g class="cls-7">
          <path class="cls-3" d="M167.33,506.03c-11.84-4.89-25.55-5.22-38.28.16-.37.16-.73.32-1.09.48l-.26.12c-.27.12-.54.25-.8.38l-.32.16c-.27.13-.54.27-.81.41l-.23.12c-.34.18-.68.35-1.01.54l-.29.16c-.23.13-.45.25-.68.38l-.47.27-.47.28c-.17.11-.35.21-.52.32l-.38.24c-.71.45-1.4.91-2.08,1.39l-.13.09c-.23.17-.46.33-.69.51l-.14.1c-1.27.95-2.5,1.96-3.66,3.02l-.05.04c-.9.82-1.76,1.66-2.59,2.54l-.22.23c-.15.16-.29.32-.44.48l-.34.38c-.12.13-.24.27-.36.4-.19.22-.38.44-.57.67l-.11.13c-.25.3-.49.6-.74.9l-.04.05c-10.96,13.77-14.24,32.95-6.9,50.29,1.99,4.71,4.62,8.95,7.75,12.66l.15.18c.2.23.39.46.59.68l.19.22c.22.25.45.5.68.74l.08.08c.26.28.52.55.78.82l.19.19c.2.2.4.41.61.61l.23.22c.22.21.44.42.66.63l.14.13c6.17,5.69,13.67,9.69,21.73,11.7-16.34-5.1-28.01-19.52-29.6-36.56-1.59-17.04,7.23-33.37,22.34-41.39l38.16-16.14Z"/>
        </g>
      </g>
    </g>
    <path class="cls-2" d="M132.89,573.95c.76-3.17,1.95-6.18,3.53-8.98-3.89-3.57-6.18-8.86-5.67-14.66.75-8.49,7.62-15.32,16.11-16.03,8.15-.68,15.26,4.16,18.01,11.19,0,0,29.42-12.44,29.42-12.45-4.73-11.49-13.27-20.24-23.53-25.42-8.34,2.75-16.69,5.42-25.02,8.17-7.66,2.53-15.29,5.74-21.41,11.12-9.36,8.24-15.45,21.62-15.74,34.05-.36,15.35,14.65,32.75,28.54,39.33-4.86-7.86-6.39-17.34-4.25-26.34Z"/>
    <path class="cls-4" d="M206.87,500.5l-2.66-3.93c-11.6,3.83-23.2,7.66-34.8,11.48-7.48,2.47-14.95,5.16-22.46,7.51-10.9,3.4-20.31,7.89-27.73,16.95-6.27,7.64-10.39,18.57-10.62,28.45-.36,15.35,14.66,32.77,28.54,39.34-4.87-7.86-6.39-17.34-4.25-26.34.76-3.17,1.95-6.18,3.53-8.98-3.89-3.57-6.18-8.86-5.67-14.66.75-8.49,7.62-15.32,16.11-16.03,8.15-.68,15.26,4.16,18.01,11.19l29.43-12.44c5.08-2.61,9.21-6.84,11.69-12.07,3.05-6.42,3.37-13.8.87-20.46Z"/>
  </g>
  <g>
    <path class="cls-6" d="M285.81,586.38c-5.71,0-10.65-.99-14.81-2.96-4.16-1.97-7.58-4.71-10.26-8.2-2.68-3.49-4.67-7.62-5.98-12.38-1.31-4.76-1.96-9.96-1.96-15.61s.65-10.88,1.96-15.71c1.3-4.83,3.3-9.01,5.98-12.54,2.68-3.53,6.1-6.28,10.26-8.25,4.16-1.97,9.1-2.96,14.81-2.96s10.65.99,14.81,2.96c4.16,1.98,7.58,4.73,10.26,8.25,2.68,3.53,4.67,7.71,5.98,12.54,1.3,4.83,1.96,10.07,1.96,15.71s-.65,10.85-1.96,15.61c-1.31,4.76-3.3,8.89-5.98,12.38-2.68,3.49-6.1,6.23-10.26,8.2-4.16,1.97-9.1,2.96-14.81,2.96ZM285.81,573.47c10.93,0,16.4-8.75,16.4-26.24,0-8.75-1.32-15.31-3.97-19.68-2.65-4.37-6.76-6.56-12.33-6.56-11.08,0-16.61,8.75-16.61,26.24s5.5,26.24,16.51,26.24Z"/>
    <path class="cls-6" d="M331.63,530.4c.99-.21,1.97-.37,2.96-.48.99-.11,2.08-.16,3.28-.16s2.26.05,3.17.16c.92.11,1.87.26,2.86.48.21.35.41.86.58,1.53.18.67.33,1.38.48,2.12.14.74.26,1.47.37,2.17.11.71.19,1.31.26,1.8.7-1.06,1.55-2.12,2.54-3.17.99-1.06,2.13-2.01,3.44-2.86,1.3-.85,2.77-1.53,4.39-2.06,1.62-.53,3.42-.79,5.4-.79,6.21,0,10.88,1.69,14.02,5.08,3.14,3.39,4.71,8.71,4.71,15.98v34.92c-2.54.42-5.04.63-7.51.63s-4.97-.21-7.51-.63v-30.9c0-3.81-.58-6.74-1.75-8.78-1.16-2.05-3.19-3.07-6.08-3.07-1.2,0-2.43.18-3.7.53-1.27.35-2.42,1.04-3.44,2.06-1.02,1.02-1.85,2.45-2.49,4.29-.63,1.84-.95,4.23-.95,7.2v28.68c-2.54.42-5.04.63-7.51.63s-4.97-.21-7.51-.63v-54.71Z"/>
    <path class="cls-6" d="M393.33,507.76c2.54-.42,5.04-.63,7.51-.63s4.87.21,7.41.63v55.55c0,2.19.12,3.95.37,5.29.25,1.34.63,2.38,1.16,3.12.53.74,1.22,1.25,2.06,1.53.85.28,1.9.42,3.17.42.56,0,1.18-.03,1.85-.11.67-.07,1.32-.18,1.96-.32.78,2.89,1.16,5.71,1.16,8.47v1.53c0,.46-.07.97-.21,1.53-1.13.35-2.49.6-4.07.74-1.59.14-3.05.21-4.39.21-5.43,0-9.79-1.5-13.07-4.5-3.28-3-4.92-7.88-4.92-14.66v-58.84Z"/>
    <path class="cls-6" d="M421.68,530.4c1.62-.35,3.05-.55,4.29-.58,1.23-.03,2.38-.05,3.44-.05,1.41,0,2.86.04,4.34.11,1.48.07,2.82.25,4.02.53l11.43,47.72,12.91-47.72c2.33-.42,4.73-.63,7.2-.63,1.06,0,2.19.02,3.39.05,1.2.04,2.68.23,4.44.58l-20.42,67.62c-.85,2.68-1.85,4.9-3.02,6.67-1.16,1.76-2.49,3.14-3.97,4.13-1.48.99-3.14,1.68-4.97,2.06-1.84.39-3.81.58-5.93.58-1.98,0-3.76-.12-5.34-.37-1.59-.25-3.16-.58-4.71-1.01-.07-.35-.11-.65-.11-.9v-.79c0-1.69.19-3.3.58-4.81.39-1.52.86-2.98,1.43-4.39.63.21,1.48.4,2.54.58,1.06.17,2.12.26,3.17.26.85,0,1.69-.05,2.54-.16.85-.11,1.67-.42,2.49-.95.81-.53,1.57-1.36,2.28-2.49.7-1.13,1.34-2.72,1.9-4.76l1.8-6.56c-.78.07-1.64.12-2.59.16-.95.03-1.92.05-2.91.05h-2.22c-.71,0-1.34-.07-1.9-.21l-16.08-54.71Z"/>
    <path class="cls-12" d="M485.39,509.03h43.17c.42,2.12.63,4.27.63,6.45,0,2.33-.21,4.55-.63,6.67h-27.72v17.88h22.01c.42,2.26.63,4.44.63,6.56,0,2.26-.21,4.48-.63,6.67h-22.01v31.85c-2.68.42-5.22.63-7.62.63-2.61,0-5.22-.21-7.83-.63v-76.08Z"/>
    <path class="cls-12" d="M537.98,530.4c1.06-.21,2.06-.37,3.02-.48.95-.11,1.99-.16,3.12-.16,1.06,0,2.1.07,3.12.21,1.02.14,2.03.32,3.02.53.21.35.4.86.58,1.53.18.67.33,1.38.48,2.12.14.74.26,1.48.37,2.22.11.74.19,1.36.26,1.85,1.55-2.19,3.46-4.14,5.71-5.87,2.26-1.73,5.08-2.59,8.47-2.59.7,0,1.52.04,2.43.11.92.07,1.59.18,2.01.32.14.71.25,1.52.32,2.43.07.92.11,1.87.11,2.86,0,1.2-.05,2.51-.16,3.92-.11,1.41-.3,2.75-.58,4.02-.78-.14-1.64-.21-2.59-.21h-1.75c-1.2,0-2.54.12-4.02.37-1.48.25-2.89.9-4.23,1.96-1.34,1.06-2.45,2.65-3.33,4.76-.88,2.12-1.32,5.08-1.32,8.89v26.03c-1.27.21-2.54.35-3.81.42-1.27.07-2.5.11-3.7.11s-2.42-.04-3.65-.11c-1.24-.07-2.52-.21-3.86-.42v-54.81Z"/>
    <path class="cls-12" d="M583.48,541.83h-7.09c-.21-.92-.37-1.89-.48-2.91-.11-1.02-.16-1.99-.16-2.91,0-1.9.21-3.77.63-5.61h21.8v54.71c-2.54.42-5.01.63-7.41.63s-4.76-.21-7.3-.63v-43.28ZM581.26,521.19c-.42-2.4-.63-4.76-.63-7.09s.21-4.62.63-7.09c1.2-.21,2.49-.37,3.86-.48,1.38-.11,2.63-.16,3.76-.16,1.2,0,2.5.05,3.92.16,1.41.11,2.71.26,3.92.48.21,1.2.35,2.38.42,3.54.07,1.16.11,2.35.11,3.54,0,1.13-.04,2.29-.11,3.49-.07,1.2-.21,2.4-.42,3.6-1.2.21-2.49.35-3.86.42-1.38.07-2.66.11-3.86.11-1.13,0-2.4-.03-3.81-.11-1.41-.07-2.72-.21-3.92-.42Z"/>
    <path class="cls-12" d="M624.96,562.36c.28,4.23,1.76,7.3,4.44,9.21,2.68,1.9,6.21,2.86,10.58,2.86,2.4,0,4.85-.23,7.35-.69,2.5-.46,4.88-1.11,7.14-1.96.78,1.41,1.45,3.11,2.01,5.08.56,1.98.88,4.09.95,6.35-5.5,2.12-11.71,3.17-18.62,3.17-5.08,0-9.44-.71-13.07-2.12-3.63-1.41-6.6-3.37-8.89-5.87-2.29-2.5-3.99-5.48-5.08-8.94-1.09-3.46-1.64-7.23-1.64-11.32s.56-7.79,1.69-11.32c1.13-3.53,2.8-6.6,5.03-9.21,2.22-2.61,4.97-4.67,8.25-6.19,3.28-1.52,7.11-2.28,11.48-2.28,3.81,0,7.2.67,10.16,2.01,2.96,1.34,5.48,3.17,7.57,5.5,2.08,2.33,3.65,5.1,4.71,8.31,1.06,3.21,1.59,6.65,1.59,10.32,0,1.34-.05,2.66-.16,3.97-.11,1.31-.23,2.35-.37,3.12h-35.13ZM646.44,551.88c-.14-3.39-1.08-6.12-2.8-8.2-1.73-2.08-4.15-3.12-7.25-3.12-3.53,0-6.21.99-8.04,2.96-1.84,1.98-2.93,4.76-3.28,8.36h21.37Z"/>
    <path class="cls-12" d="M672.47,530.4c.99-.21,1.97-.37,2.96-.48.99-.11,2.08-.16,3.28-.16s2.26.05,3.17.16c.92.11,1.87.26,2.86.48.21.35.4.86.58,1.53.18.67.33,1.38.48,2.12.14.74.26,1.47.37,2.17.11.71.19,1.31.26,1.8.7-1.06,1.55-2.12,2.54-3.17.99-1.06,2.13-2.01,3.44-2.86,1.3-.85,2.77-1.53,4.39-2.06,1.62-.53,3.42-.79,5.4-.79,6.21,0,10.88,1.69,14.02,5.08,3.14,3.39,4.71,8.71,4.71,15.98v34.92c-2.54.42-5.04.63-7.51.63s-4.97-.21-7.51-.63v-30.9c0-3.81-.58-6.74-1.75-8.78-1.16-2.05-3.19-3.07-6.08-3.07-1.2,0-2.43.18-3.7.53-1.27.35-2.42,1.04-3.44,2.06-1.02,1.02-1.85,2.45-2.49,4.29-.63,1.84-.95,4.23-.95,7.2v28.68c-2.54.42-5.04.63-7.51.63s-4.97-.21-7.51-.63v-54.71Z"/>
    <path class="cls-12" d="M767.39,507.76c1.27-.21,2.52-.35,3.76-.42,1.23-.07,2.45-.11,3.65-.11s2.43.04,3.7.11c1.27.07,2.54.21,3.81.42v75.55c-3.32.99-6.68,1.75-10.11,2.28-3.42.53-7.57.79-12.43.79-3.74,0-7.32-.51-10.74-1.53-3.42-1.02-6.44-2.65-9.05-4.87-2.61-2.22-4.67-5.1-6.19-8.62-1.52-3.53-2.28-7.83-2.28-12.91,0-4.02.65-7.81,1.96-11.38,1.31-3.56,3.17-6.65,5.61-9.26,2.43-2.61,5.38-4.67,8.84-6.19,3.46-1.52,7.3-2.28,11.53-2.28,1.27,0,2.59.05,3.97.16,1.38.11,2.7.34,3.97.69v-22.43ZM767.39,541.72c-1.41-.35-2.56-.58-3.44-.69-.88-.11-1.99-.16-3.33-.16-2.33,0-4.36.48-6.08,1.43-1.73.95-3.16,2.22-4.29,3.81-1.13,1.59-1.96,3.46-2.49,5.61-.53,2.15-.79,4.39-.79,6.72,0,2.89.35,5.34,1.06,7.35.7,2.01,1.67,3.62,2.91,4.81,1.23,1.2,2.7,2.06,4.39,2.59,1.69.53,3.53.79,5.5.79,1.2,0,2.29-.05,3.28-.16.99-.11,2.08-.33,3.28-.69v-31.43Z"/>
    <path class="cls-12" d="M796.91,585.11c-.42-2.61-.63-5.18-.63-7.72s.21-5.15.63-7.83c2.61-.42,5.18-.63,7.72-.63s5.15.21,7.83.63c.42,2.68.63,5.26.63,7.73,0,2.61-.21,5.22-.63,7.83-2.68.42-5.26.63-7.72.63-2.61,0-5.22-.21-7.83-.63Z"/>
    <path class="cls-6" d="M864.11,572.2c.85,1.41,1.55,3.05,2.12,4.92.56,1.87.85,4.07.85,6.61-2.82,1.13-5.47,1.85-7.94,2.17-2.47.32-5.04.48-7.72.48-4.59,0-8.57-.72-11.96-2.17-3.39-1.44-6.19-3.44-8.41-5.98-2.22-2.54-3.9-5.56-5.03-9.05-1.13-3.49-1.69-7.28-1.69-11.38s.55-7.76,1.64-11.22c1.09-3.46,2.75-6.49,4.97-9.1,2.22-2.61,4.99-4.66,8.31-6.14,3.32-1.48,7.16-2.22,11.54-2.22,1.55,0,2.98.04,4.29.11,1.3.07,2.56.21,3.76.42,1.2.21,2.4.49,3.6.85,1.2.35,2.54.81,4.02,1.38,0,1.62-.21,3.44-.63,5.45-.42,2.01-1.09,3.93-2.01,5.77-2.12-.71-3.97-1.18-5.56-1.43-1.59-.25-3.4-.37-5.45-.37-4.38,0-7.67,1.43-9.89,4.28-2.22,2.86-3.33,6.93-3.33,12.22,0,5.71,1.2,9.88,3.6,12.49,2.4,2.61,5.64,3.92,9.74,3.92,1.06,0,2.03-.02,2.91-.05.88-.03,1.75-.12,2.59-.26.85-.14,1.71-.35,2.59-.63.88-.28,1.92-.63,3.12-1.06Z"/>
    <path class="cls-6" d="M877.44,507.76c1.2-.21,2.43-.35,3.7-.42,1.27-.07,2.5-.11,3.7-.11s2.43.04,3.7.11c1.27.07,2.54.21,3.81.42v29.1c.49-.63,1.15-1.39,1.96-2.28.81-.88,1.82-1.73,3.02-2.54,1.2-.81,2.65-1.5,4.34-2.06,1.69-.56,3.63-.85,5.82-.85,6.07,0,10.67,1.69,13.81,5.08,3.14,3.39,4.71,8.71,4.71,15.98v35.03c-1.27.21-2.54.35-3.81.42-1.27.07-2.51.11-3.7.11s-2.43-.04-3.7-.11c-1.27-.07-2.54-.21-3.81-.42v-31.01c0-3.81-.6-6.74-1.8-8.78-1.2-2.05-3.25-3.07-6.14-3.07-1.2,0-2.43.18-3.7.53-1.27.35-2.42,1.04-3.44,2.06s-1.87,2.45-2.54,4.29c-.67,1.84-1.01,4.23-1.01,7.2v28.78c-1.27.21-2.54.35-3.81.42-1.27.07-2.51.11-3.7.11s-2.42-.04-3.65-.11c-1.24-.07-2.49-.21-3.76-.42v-77.46Z"/>
  </g>
</svg>